<svg xmlns="http://www.w3.org/2000/svg" width="43.775" height="43.774" viewBox="0 0 43.775 43.774"> <g id="fair" transform="translate(-0.85 -0.85)"> <path id="Path_2649" data-name="Path 2649" d="M36.743,18.381,36.3,17.052A5.161,5.161,0,0,0,33.051,20.3l1.329.444A3.759,3.759,0,0,1,36.743,18.381Z" transform="translate(-9.577 -4.796)" fill="#001f60" stroke="#0a0e4d" stroke-width="0.5"></path> <path id="Path_2650" data-name="Path 2650" d="M43.072,10.817a1.4,1.4,0,0,0,1.4-1.4v-1.4a1.4,1.4,0,0,0-1.4-1.4H39.3a2.754,2.754,0,0,0-3.671,0H30.322a2.08,2.08,0,0,0,.129-.7v-1.4a2.1,2.1,0,0,0-2.886-1.949,2.085,2.085,0,0,0-3.425-1.01,2.071,2.071,0,0,0-2.8,0A2.095,2.095,0,0,0,17.829,3.1v2.1a2.8,2.8,0,0,0-2.415,1.4H9.848a2.754,2.754,0,0,0-3.672,0H2.4A1.4,1.4,0,0,0,1,8.012v1.4a1.4,1.4,0,0,0,1.4,1.4H6.176a2.908,2.908,0,0,0,.259.214L1,22.58v.858a7.012,7.012,0,1,0,14.024,0V22.58L9.589,11.03a2.792,2.792,0,0,0,.259-.214h5.176v1.4a11.294,11.294,0,0,0,1.782,6.059,1.4,1.4,0,0,0-.379.954v7.85l-2.12,2.12,1.021,1.021a1.357,1.357,0,0,1,.276,1.5,1.341,1.341,0,0,1-1.242.83H12.92v4.207h1.441a1.375,1.375,0,0,1,.966,2.332l-1.021,1.021,2.976,2.976L18.3,42.069a1.374,1.374,0,0,1,2.331.965v1.441h4.207V43.034a1.375,1.375,0,0,1,2.332-.966l1.021,1.021,2.976-2.976-1.021-1.021a1.357,1.357,0,0,1-.276-1.5,1.34,1.34,0,0,1,1.241-.83h1.441V32.554H31.113a1.375,1.375,0,0,1-.966-2.331L31.169,29.2l-2.12-2.12v-7.85a1.4,1.4,0,0,0-.379-.953,11.294,11.294,0,0,0,1.782-6.059v-1.4h5.176a2.909,2.909,0,0,0,.259.214L30.451,22.58v.858a7.012,7.012,0,1,0,14.024,0V22.58L39.04,11.03a2.791,2.791,0,0,0,.259-.214h3.774ZM8.012,7.311a1.4,1.4,0,1,1-1.4,1.4A1.4,1.4,0,0,1,8.012,7.311Zm-5.61.7h2.9a2.519,2.519,0,0,0,0,1.4H2.4Zm5.61,21.036a5.616,5.616,0,0,1-5.61-5.61H13.622A5.616,5.616,0,0,1,8.012,29.048Zm5.206-7.012H2.806L7.768,11.494c.081.007.161.025.244.025s.163-.018.244-.025Zm-2.5-12.622a2.519,2.519,0,0,0,0-1.4h4.307v1.4Zm32.355,0h-2.9a2.519,2.519,0,0,0,0-1.4h2.9Zm-5.61-2.1a1.4,1.4,0,1,1-1.4,1.4A1.4,1.4,0,0,1,37.463,7.311Zm-2.705,2.1h-10a3.382,3.382,0,0,0,1.173-1.4h8.828a2.519,2.519,0,0,0,0,1.4ZM28.347,3.8a.7.7,0,0,1,.7.7v1.4a.7.7,0,1,1-1.4,0v-1.4A.7.7,0,0,1,28.347,3.8Zm-2.8-1.4a.7.7,0,0,1,.7.7v2.8a.688.688,0,0,1-.068.292,1.4,1.4,0,0,0-1.334-.993V3.1a.7.7,0,0,1,.7-.7Zm-2.8,0a.7.7,0,0,1,.7.7v2.1h-1.4V3.1A.7.7,0,0,1,22.737,2.4Zm-3.506.7a.7.7,0,1,1,1.4,0v2.1h-1.4Zm8.414,16.128v7.542l-.474.474a1.354,1.354,0,0,1-1.5.275,1.338,1.338,0,0,1-.83-1.24V24.841H20.634v1.441a1.375,1.375,0,0,1-2.332.966l-.473-.474V19.231Zm.93,13.028a2.737,2.737,0,0,0,2.537,1.7h.039v1.4h-.039a2.776,2.776,0,0,0-1.957,4.725l.029.029-.993.993-.029-.029a2.776,2.776,0,0,0-4.725,1.957v.039h-1.4v-.039a2.776,2.776,0,0,0-4.725-1.957l-.029.029-.993-.993.029-.029a2.776,2.776,0,0,0-1.957-4.725h-.039v-1.4h.039a2.776,2.776,0,0,0,1.957-4.725l-.029-.029.993-.993.029.029a2.776,2.776,0,0,0,4.725-1.957v-.039h1.4v.039a2.776,2.776,0,0,0,4.725,1.957l.029-.029.993.993-.029.029A2.75,2.75,0,0,0,28.576,32.26Zm.472-20.04a9.88,9.88,0,0,1-1.77,5.61H18.2a9.88,9.88,0,0,1-1.77-5.61V8.012a1.4,1.4,0,0,1,1.4-1.4h7.012a1.992,1.992,0,0,1-1.509,1.934L18.8,9.677l.552.828a7.627,7.627,0,0,1,1.285,4.242v.277h1.4v-.277a9.008,9.008,0,0,0-.911-3.93h7.923Zm8.414,16.829a5.616,5.616,0,0,1-5.61-5.61H43.072A5.616,5.616,0,0,1,37.463,29.048Zm5.206-7.012H32.257l4.962-10.543c.081.007.161.025.244.025s.163-.018.244-.025Z" fill="#001f60" stroke="#0a0e4d" stroke-width="0.3"></path> <path id="Path_2651" data-name="Path 2651" d="M29.908,42a4.908,4.908,0,1,0,4.908,4.908A4.915,4.915,0,0,0,29.908,42Zm0,8.414a3.506,3.506,0,1,1,3.506-3.506A3.51,3.51,0,0,1,29.908,50.414Z" transform="translate(-7.171 -12.251)" fill="#001f60" stroke="#0a0e4d" stroke-width="0.5"></path> </g> </svg>