<svg xmlns="http://www.w3.org/2000/svg" width="53.016" height="53.016" viewBox="0 0 53.016 53.016"> <g id="skill-development" transform="translate(0.5 0.5)"> <path id="Path_2602" data-name="Path 2602" d="M45.92,12.293V6.1h-6.2a6.1,6.1,0,1,0-12.191,0H22.96a22.96,22.96,0,1,0,22.96,22.96V24.484a6.1,6.1,0,1,0,0-12.191ZM21.436,9.2v7.041c1.837-.614,2.207-.9,3.048-.9a3.048,3.048,0,1,1,0,6.1c-.842,0-1.216-.29-3.048-.9v7H18.388a6.1,6.1,0,0,0-12.191,0H3.106A19.944,19.944,0,0,1,21.436,9.2ZM3.106,30.579h7.041c-.614-1.839-.9-2.207-.9-3.048a3.048,3.048,0,0,1,6.1,0c0,.841-.288,1.21-.9,3.048h7v3.048a6.1,6.1,0,1,0,0,12.191V48.91A19.944,19.944,0,0,1,3.106,30.579ZM24.484,48.91V41.869c-1.837.614-2.207.9-3.048.9a3.048,3.048,0,0,1,0-6.1c.842,0,1.216.29,3.048.9v-7h3.048a6.1,6.1,0,1,0,12.191,0h3.092A19.944,19.944,0,0,1,24.484,48.91ZM45.92,21.436c-.691,0-1.215-.314-3.048-.943v7.039h-7.1c.614,1.839.9,2.207.9,3.048a3.048,3.048,0,1,1-6.1,0c0-.841.288-1.21.9-3.048h-7V24.484a6.1,6.1,0,1,0,0-12.191V9.143h7.039c-.622-1.813-.943-2.357-.943-3.048a3.048,3.048,0,1,1,6.1,0c0,.691-.315,1.216-.943,3.048h7.14v7.14c1.813-.622,2.357-.943,3.048-.943a3.048,3.048,0,1,1,0,6.1Z" fill="#001f60" stroke="#fff" stroke-width="1"></path> </g> </svg>