<svg id="Group_4253" data-name="Group 4253" xmlns="http://www.w3.org/2000/svg" width="66.673" height="64.26" viewBox="0 0 66.673 64.26">
						  <g id="Group_4252" data-name="Group 4252" transform="translate(0 0)">
						    <path id="Path_2647" data-name="Path 2647" d="M51.743,68.994,65.149,55.588a5.2,5.2,0,0,0-2.512-8.754A5.209,5.209,0,0,0,58.8,39.507a5.2,5.2,0,0,0-4.056-6.759,5.21,5.21,0,0,0-7.433-6.212l-.133-.143a9.222,9.222,0,0,0-6.729-2.93H29.6a1.382,1.382,0,0,0-1.382,1.382v1.812a6.278,6.278,0,0,0,.357,2.1A5.208,5.208,0,0,0,21.63,35.2a5.208,5.208,0,0,0-4.062,6.76,5.208,5.208,0,0,0-3.835,7.323,5.208,5.208,0,0,0-2.512,8.757L13.977,60.8.4,74.368a1.382,1.382,0,1,0,1.954,1.955l13.7-13.7a5.2,5.2,0,0,0,7.774-4.738c.07,0,.14,0,.21,0a5.2,5.2,0,0,0,5.208-5.205c0-.07,0-.14-.005-.21.069,0,.138,0,.208,0a5.2,5.2,0,0,0,5.208-5.205c0-.07,0-.14-.005-.21.069,0,.138,0,.208,0a5.2,5.2,0,0,0,4.028-8.506l9.174-9.174a2.444,2.444,0,1,1,3.456,3.456l-1.353,1.353L45.264,39.1a1.382,1.382,0,1,0,1.954,1.955l4.907-4.907A2.444,2.444,0,1,1,55.582,39.6l-1.353,1.353-3.555,3.555a1.382,1.382,0,1,0,1.954,1.955l3.555-3.555a2.444,2.444,0,1,1,3.456,3.456l-1.857,1.857-1.7,1.7a1.382,1.382,0,1,0,1.954,1.955l1.7-1.7a2.444,2.444,0,0,1,3.455,3.457L49.787,67.04a18.721,18.721,0,0,1-12.6,5.488,1.382,1.382,0,0,0-.929.406L23.876,85.364a1.382,1.382,0,1,0,1.958,1.951l9.109-9.143a12.845,12.845,0,0,0,7.8,2.007l7.129,7.129a1.382,1.382,0,0,0,1.954-1.955l-7.58-7.581a1.383,1.383,0,0,0-1.09-.4l-.438.036a10.088,10.088,0,0,1-5.767-1.255l.888-.891A21.473,21.473,0,0,0,51.743,68.994ZM20.364,59.818a2.443,2.443,0,0,1-3.456,0l-3.734-3.734a2.444,2.444,0,1,1,3.456-3.456l3.734,3.734A2.447,2.447,0,0,1,20.364,59.818Zm5.411-5.411a2.447,2.447,0,0,1-3.456,0l-3.734-3.734-1.857-1.857a2.444,2.444,0,1,1,3.456-3.456l5.591,5.591h0a2.444,2.444,0,0,1,0,3.456ZM31.185,49a2.447,2.447,0,0,1-3.456,0l-6.943-6.943A2.444,2.444,0,0,1,24.241,38.6l3.165,3.165,3.78,3.78h0a2.444,2.444,0,0,1,0,3.456Zm5.41-5.41a2.447,2.447,0,0,1-3.456,0L26.2,36.643l0,0-1.35-1.35A2.444,2.444,0,0,1,28.3,31.835l8.3,8.3a2.444,2.444,0,0,1,0,3.456Zm.363-7-3.8-3.8a6.323,6.323,0,0,0,1.323.141h.031l3.792-.018a1.382,1.382,0,0,0-.006-2.764H38.3l-3.792.018h-.017a3.51,3.51,0,0,1-3.51-3.51v-.43h9.47a6.45,6.45,0,0,1,4.706,2.049l.056.06Z" transform="translate(0.001 -23.462)" fill="#001f60"></path>
						  </g>
						</svg>