<svg xmlns="http://www.w3.org/2000/svg" width="41.701" height="50.388" viewBox="0 0 41.701 50.388"> <g id="award" transform="translate(-39.995)"> <g id="Group_4215" data-name="Group 4215" transform="translate(39.995)"> <g id="Group_4214" data-name="Group 4214"> <path id="Path_2603" data-name="Path 2603" d="M81.514,43.774l-5.286-6.8a7.652,7.652,0,0,0,4.182-3.1c1.245-2.152.682-4.778.137-7.315a19.98,19.98,0,0,1-.588-3.979,19.973,19.973,0,0,1,.588-3.982c.541-2.539,1.108-5.163-.137-7.311-1.289-2.228-3.885-3.052-6.4-3.848A18.605,18.605,0,0,1,70.4,6.032a17.649,17.649,0,0,1-2.894-2.346C65.646,1.957,63.534,0,60.846,0s-4.8,1.957-6.663,3.685A17.654,17.654,0,0,1,51.29,6.032a18.6,18.6,0,0,1-3.611,1.411c-2.511.8-5.107,1.62-6.4,3.848-1.245,2.152-.682,4.778-.137,7.315a19.973,19.973,0,0,1,.587,3.982,19.973,19.973,0,0,1-.588,3.982c-.541,2.539-1.108,5.163.137,7.311a7.652,7.652,0,0,0,4.187,3.1l-5.291,6.8a.869.869,0,0,0,.794,1.4l6.212-.776,1.533,5.365a.869.869,0,0,0,.67.614.886.886,0,0,0,.165.016.869.869,0,0,0,.686-.335l5.548-7.136a8.033,8.033,0,0,0,5.06,2.259,8.033,8.033,0,0,0,5.06-2.259l5.548,7.133a.869.869,0,0,0,.686.338.886.886,0,0,0,.165-.016.869.869,0,0,0,.67-.614l1.533-5.365,6.212.776a.869.869,0,0,0,.794-1.4Zm-31.6,3.861L48.65,43.2a.869.869,0,0,0-.943-.623l-4.865.608,4.36-5.605.48.154a18.6,18.6,0,0,1,3.607,1.411,17.649,17.649,0,0,1,2.894,2.346l.3.276Zm10.929-4.2c-2.007,0-3.695-1.564-5.483-3.221a19.15,19.15,0,0,0-3.2-2.578A20.144,20.144,0,0,0,48.2,36.075c-2.3-.729-4.465-1.417-5.418-3.062-.909-1.572-.44-3.762.058-6.081a21.274,21.274,0,0,0,.627-4.344,21.266,21.266,0,0,0-.626-4.344c-.5-2.319-.967-4.509-.058-6.081.956-1.645,3.121-2.333,5.418-3.062a20.149,20.149,0,0,0,3.955-1.564,19.149,19.149,0,0,0,3.2-2.578c1.789-1.658,3.477-3.221,5.484-3.221S64.541,3.3,66.329,4.959a19.15,19.15,0,0,0,3.2,2.578A20.143,20.143,0,0,0,73.489,9.1c2.3.729,4.465,1.417,5.418,3.062.909,1.572.44,3.762-.058,6.081a21.275,21.275,0,0,0-.627,4.344,21.266,21.266,0,0,0,.626,4.344c.5,2.319.967,4.509.058,6.081-.956,1.645-3.121,2.333-5.418,3.062a20.15,20.15,0,0,0-3.955,1.564,19.15,19.15,0,0,0-3.2,2.578C64.541,41.874,62.853,43.438,60.846,43.438Zm13.143-.862a.869.869,0,0,0-.943.623l-1.272,4.436-4.564-5.868.3-.276A17.654,17.654,0,0,1,70.4,39.144a18.6,18.6,0,0,1,3.611-1.411l.48-.154,4.361,5.605Z" transform="translate(-39.995)" fill="#001f60"></path> </g> </g> <g id="Group_4217" data-name="Group 4217" transform="translate(45.208 6.95)"> <g id="Group_4216" data-name="Group 4216" transform="translate(0)"> <path id="Path_2604" data-name="Path 2604" d="M103.638,64a15.638,15.638,0,1,0,15.638,15.638A15.638,15.638,0,0,0,103.638,64Zm0,29.538a13.9,13.9,0,1,1,13.9-13.9A13.9,13.9,0,0,1,103.638,93.538Z" transform="translate(-88 -64)" fill="#001f60"></path> </g> </g> <g id="Group_4219" data-name="Group 4219" transform="translate(50.488 11.986)"> <g id="Group_4218" data-name="Group 4218"> <path id="Path_2605" data-name="Path 2605" d="M157,117.348a1.737,1.737,0,0,0-1.4-.715h-5.319l-1.651-5.062a1.738,1.738,0,0,0-3.3,0l-1.646,5.062h-5.323a1.738,1.738,0,0,0-1.023,3.142l4.306,3.128-1.645,5.062a1.738,1.738,0,0,0,2.674,1.943l4.308-3.127,4.306,3.128a1.737,1.737,0,0,0,2.674-1.943L152.31,122.9l4.306-3.128A1.737,1.737,0,0,0,157,117.348Zm-6.22,4.521a.869.869,0,0,0-.315.972l1.84,5.663-4.817-3.5a.869.869,0,0,0-1.021,0l-4.817,3.5,1.839-5.663a.869.869,0,0,0-.315-.971l-4.816-3.5h5.954a.869.869,0,0,0,.826-.6l1.84-5.663,1.84,5.662a.869.869,0,0,0,.826.6h5.954Z" transform="translate(-136.616 -110.376)" fill="#001f60"></path> </g> </g> </g> </svg>