<svg xmlns="http://www.w3.org/2000/svg" width="50.192" height="43.204" viewBox="0 0 50.192 43.204"> <path id="reliability" d="M48.876,20.2a2.889,2.889,0,0,0-1.373-.8,2.89,2.89,0,0,0,.441-1.651,2.963,2.963,0,0,0-2.962-2.806H39.216L39.21,6.309a3.4,3.4,0,1,0-6.794,0V8.595a4.125,4.125,0,0,1-.352,1.669,8.016,8.016,0,0,1-7.7-8V1.213A1.214,1.214,0,0,0,23.148,0H10.628A1.214,1.214,0,0,0,9.414,1.213v.825a8.016,8.016,0,0,1-8.007,8.007H1.213A1.214,1.214,0,0,0,0,11.258V25.816A16.89,16.89,0,0,0,32.221,32.9H42.368a2.506,2.506,0,0,0,1.777-.748,2.384,2.384,0,0,0,.49-2.649h.347A2.963,2.963,0,0,0,47.943,26.7a2.888,2.888,0,0,0-.448-1.662,2.95,2.95,0,0,0,2.2-2.7,2.89,2.89,0,0,0-.814-2.127ZM16.888,41.248A15.449,15.449,0,0,1,1.456,25.816V11.5A9.474,9.474,0,0,0,10.87,2.038V1.456H22.9v.809a9.477,9.477,0,0,0,8.169,9.374,4.159,4.159,0,0,1-.568.436L26.529,14.6a2.177,2.177,0,0,1-1.172.342h-.9a2.187,2.187,0,0,0-2.09-1.553H18.295a2.187,2.187,0,0,0-2.059,1.456H12.666a1.9,1.9,0,0,0-1.893,1.893v12.52a1.894,1.894,0,0,0,1.893,1.893h3.445v7.161A12.488,12.488,0,0,1,4.368,25.865V13.8a9.946,9.946,0,0,0,9.2-9.485h2.548v6.406a.728.728,0,0,0,1.456,0V3.591a.728.728,0,0,0-.728-.728h-4a.728.728,0,0,0-.728.728V3.9A8.485,8.485,0,0,1,3.64,12.374a.728.728,0,0,0-.728.728V25.865A13.943,13.943,0,0,0,16.839,39.792a.728.728,0,0,0,.728-.728V32.535a1.986,1.986,0,0,0,.534.075h4.27a2.181,2.181,0,0,0,1.747-.875l.776.44a5.59,5.59,0,0,0,2.752.726H30.6a15.422,15.422,0,0,1-13.713,8.347ZM16.111,29.7H12.666a.437.437,0,0,1-.437-.437V16.742a.437.437,0,0,1,.437-.437h3.445Zm30.617-6.017H41.054a.728.728,0,1,0,0,1.456h3.979a1.455,1.455,0,0,1,1.455,1.51,1.5,1.5,0,0,1-1.507,1.4H42.413l-.049,0-.049,0H41.054a.728.728,0,1,0,0,1.456h1.262l.049,0,.049,0a.975.975,0,0,1,.971.952.94.94,0,0,1-.278.677,1.042,1.042,0,0,1-.737.312H27.646a4.131,4.131,0,0,1-2.034-.536l-1.057-.6V28.663a.728.728,0,1,0-1.456,0v1.763a.729.729,0,0,1-.728.728H18.1a.535.535,0,0,1-.534-.534V15.577a.729.729,0,0,1,.728-.728h4.076a.729.729,0,0,1,.728.728v9.689a.728.728,0,0,0,1.456,0V16.4h.8a3.632,3.632,0,0,0,1.954-.569L31.288,13.3a5.554,5.554,0,0,0,2.584-4.708V6.309a1.941,1.941,0,1,1,3.882,0l.006,8.881A1.215,1.215,0,0,0,38.973,16.4h6.008a1.5,1.5,0,0,1,1.507,1.4,1.455,1.455,0,0,1-1.455,1.51H41.054a.728.728,0,1,0,0,1.456H46.78a1.455,1.455,0,0,1,1.455,1.51,1.5,1.5,0,0,1-1.507,1.4Zm0,0" transform="translate(0.25 0.25)" fill="#001f60" stroke="#0a0e4d" stroke-width="0.5"></path> </svg>